<?xml version="1.0" encoding="utf-8"?>
<!-- Generator: Adobe Illustrator 16.0.0, SVG Export Plug-In . SVG Version: 6.00 Build 0)  -->
<!DOCTYPE svg PUBLIC "-//W3C//DTD SVG 1.1//EN" "http://www.w3.org/Graphics/SVG/1.1/DTD/svg11.dtd">
<svg version="1.1" id="Calque_1" xmlns="http://www.w3.org/2000/svg" xmlns:xlink="http://www.w3.org/1999/xlink" x="0px" y="0px"
	 width="612px" height="792px" viewBox="0 0 612 792" enable-background="new 0 0 612 792" xml:space="preserve">
<path d="M128.908,90.509h28.59l17.576,28.824l17.576-28.824h28.59v82.021h-27.301v-40.659l-18.865,29.176h-0.468l-18.865-29.176
	v40.659h-26.833V90.509z"/>
<path d="M230.609,90.509h69.952v22.497h-43.002v8.319h40.073v19.802h-40.073v8.905h43.588v22.497h-70.538V90.509z"/>
<path d="M337.115,89.923h27.184l34.565,82.606h-29.762l-4.335-11.014H336.06l-4.219,11.014h-29.293L337.115,89.923z
	 M357.971,142.064l-7.499-19.919l-7.499,19.919H357.971z"/>
<path d="M402.255,90.509h25.661l29.176,36.206V90.509h27.184v82.021h-24.371l-30.465-37.847v37.847h-27.185V90.509z"/>
<title>HTML5 Logo</title>
<polygon fill="#895C21" points="128.668,652.845 89.21,210.272 522.79,210.272 483.289,652.775 305.735,702 "/>
<polygon fill="#A58537" points="306,664.375 449.473,624.599 483.229,246.459 306,246.459 "/>
<polygon fill="#EBEBEB" points="306,410.604 234.174,410.604 229.213,355.02 306,341.5 306,279.887 305.812,279.887 169.892,300.74 
	171.192,315.302 184.532,464.882 306,464.882 "/>
<polygon fill="#EBEBEB" points="306,551.573 305.762,551.637 245.311,535.313 241.446,492.023 212.072,492.023 186.957,492.023 
	194.562,577.25 305.75,608.116 306,608.047 "/>
<polygon fill="#FFFFFF" points="305.812,341.75 306.065,341.683 379.516,347.25 376.639,386.25 407.831,386.25 434.5,386.25 
	443.25,300.25 306.266,279.887 306,279.96 "/>
<polygon fill="#FFFFFF" points="305.812,410.604 305.812,464.882 372.652,464.882 366.351,535.279 305.812,551.619 305.812,608.09 
	417.088,577.25 417.905,568.08 430.66,425.179 431.985,410.604 417.358,410.604 "/>
</svg>
